# AST/ASF file generated using VICON BodyLanguage
# -----------------------------------------------
:version 1.10
:name VICON
:units
  mass 1.0
  length 0.45
  angle deg
:documentation
   .ast/.asf automatically generated from VICON data using
   VICON BodyBuilder and BodyLanguage model FoxedUp or BRILLIANT.MOD
:root
   order TX TY TZ RX RY RZ
   axis XYZ
   position 0 0 0  
   orientation 0 0 0 
:bonedata
  begin
     id 1 
     name lhipjoint
     direction 0.440178 -0.822639 0.359871 
     length 2.53113 
     axis 0 0 0  XYZ
  end
  begin
     id 2 
     name lfemur
     direction 0.34202 -0.939693 0  
     length 7.88132  
     axis 0 0 20  XYZ
    dof rx ry rz
    limits (-160.0 20.0)
           (-70.0 70.0)
           (-60.0 70.0)
  end
  begin
     id 3 
     name ltibia
     direction 0.34202 -0.939693 0   
     length 8.43783   
     axis 0 0 20   XYZ
    dof rx
    limits (-10.0 170.0)
  end
  begin
     id 4 
     name lfoot
     direction 0.0886351 -0.243523 0.965837   
     length 2.63414   
     axis -90 7.62852e-016 20   XYZ
    dof rx rz
    limits (-45.0 90.0)
           (-70.0 20.0)
  end
  begin
     id 5 
     name ltoes
     direction 1.53703e-011 -4.21717e-011 1   
     length 1.31427   
     axis -90 7.62852e-016 20   XYZ
    dof rx
    limits (-90.0 20.0)
  end
  begin
     id 6 
     name rhipjoint
     direction -0.399779 -0.839773 0.367367   
     length 2.47948  
     axis 0 0 0  XYZ 
  end
  begin
     id 7 
     name rfemur
     direction -0.34202 -0.939693 0   
     length 7.74806   
     axis 0 0 -20   XYZ
    dof rx ry rz
    limits (-160.0 20.0)
           (-70.0 70.0)
           (-70.0 60.0)
  end
  begin
     id 8 
     name rtibia
     direction -0.34202 -0.939693 0   
     length 8.74432   
     axis 0 0 -20   XYZ
    dof rx
    limits (-10.0 170.0)
 end
 begin
     id 9 
     name rfoot
     direction -0.108514 -0.298139 0.948334   
     length 2.66102  
     axis -90 -7.62852e-016 -20   XYZ
    dof rx rz
    limits (-45.0 90.0)
           (-20.0 70.0)
  end
  begin
     id 10 
     name rtoes
     direction -1.53392e-011 -4.22077e-011 1   
     length 1.31983   
     axis -90 -7.62852e-016 -20   XYZ
    dof rx
    limits (-90.0 20.0)
  end
  begin
     id 11 
     name lowerback
     direction 0.0113257 0.999866 0.0118602   
     length 2.58694   
     axis 0 0 0   XYZ
    dof rx ry rz
    limits (-20.0 45.0)
           (-30.0 30.0)
           (-30.0 30.0)
  end
  begin
     id 12 
     name upperback
     direction -0.0164747 0.995193 -0.0965375   
     length 2.52368   
     axis 0 0 0   XYZ
    dof rx ry rz
    limits (-20.0 45.0)
           (-30.0 30.0)
           (-30.0 30.0)
  end
  begin
     id 13 
     name thorax
     direction -0.0194301 0.99433 -0.104552   
     length 2.56099   
     axis 0 0 0   XYZ
    dof rx ry rz
    limits (-20.0 45.0)
           (-30.0 30.0)
           (-30.0 30.0)
  end
  begin
     id 14 
     name lowerneck
     direction 0.0148543 0.995587 -0.092657   
     length 1.71582   
     axis 0 0 0   XYZ
    dof rx ry rz
    limits (-20.0 45.0)
           (-30.0 30.0)
           (-30.0 30.0)
  end
  begin
     id 15 
     name upperneck
     direction -0.0135467 0.993656 -0.111639   
     length 1.68937   
     axis 0 0 0   XYZ
    dof rx ry rz
    limits (-20.0 45.0)
           (-30.0 30.0)
           (-30.0 30.0)
  end
  begin
     id 16
     name head
     direction -0.00615349 0.999547 -0.029448  
     length 1.7462  
     axis 0 0 0   XYZ
    dof rx ry rz
    limits (-20.0 45.0)
           (-30.0 30.0)
           (-30.0 30.0)
  end
  begin
     id 17 
     name lclavicle
     direction 0.988267 0.149885 0.0293713  
     length 4.47222  
     axis 0 0 0   XYZ
    dof ry rz
    limits (-20.0 10.0)
           (0.0 20.0)
  end
  begin
     id 18 
     name lhumerus
     direction 1 -4.48986e-011 -1.14833e-027   
     length 5.37148   
     axis 180 -30 -90   XYZ
    dof rx ry rz
    limits (-60.0 90.0)
           (-90.0 90.0)
           (-90.0 90.0)
  end
  begin
     id 19
     name lradius
     direction 0.999998 0.00170963 -0.000987055   
     length 3.94212   
     axis 180 -30 -90   XYZ
    dof rx
    limits (-10.0 170.0)
  end
  begin
     id 20
     name lwrist
     direction 0.999998 7.53149e-005 -0.00194706   
     length 1.97106   
     axis 4.65056e-015 90 90   XYZ
    dof ry
    limits (-180.0 0.0)
 end
  begin
     id 21 
     name lhand
     direction 1 -4.48973e-011 -1.31746e-026   
     length 1.17917   
     axis 8.4065e-015 90 90   XYZ
    dof rx rz
    limits (-90.0 90.0)
           (-45.0 45.0)
  end
  begin
     id 22 
     name lfingers
     direction 1 -4.49107e-011 -2.63492e-026   
     length 0.950679   
     axis 1.6813e-014 90 90   XYZ
    dof rx
    limits (0.0 90.0)
  end
  begin
     id 23
     name lthumb
     direction 0.707107 -6.35048e-011 0.707107   
     length 1.36499   
     axis -90 45 2.85299e-015   XYZ
    dof rx rz
    limits (-45.0 45.0)
           (-45.0 45.0)
  end
  begin
     id 24 
     name rclavicle
     direction -0.996699 0.0642895 -0.0495725   
     length 4.62611  
     axis 0 0 0   XYZ 
    dof ry rz
    limits (-10.0 20.0)
           (-20.0 0.0)
  end
  begin
     id 25 
     name rhumerus
     direction -1 -4.48919e-011 -2.41059e-027  
     length 5.4981   
     axis 180 30 90   XYZ
    dof rx ry rz
    limits (-90.0 60.0)
           (-90.0 90.0)
           (-90.0 90.0)
  end
  begin
     id 26 
     name rradius
     direction -0.999999 0.00118101 -0.000681858   
     length 3.48381   
     axis 180 30 90   XYZ
    dof rx
    limits (-10.0 170.0)
  end
  begin
     id 27 
     name rwrist
     direction -0.999999 0.000321823 -0.00132288   
     length 1.7419   
     axis 4.65056e-015 -90 -90   XYZ
    dof ry
    limits (-180.0 0.0)
  end
  begin
     id 28
     name rhand
     direction -1 -4.49022e-011 -1.31746e-026   
     length 1.34932   
     axis 8.4065e-015 -90 -90   XYZ
    dof rx rz
    limits (-90.0 90.0)
           (-45.0 45.0)
  end
  begin
     id 29
     name rfingers
     direction -1 -4.49178e-011 -2.63492e-026   
     length 1.08785   
     axis 1.6813e-014 -90 -90   XYZ
    dof rx
    limits (0.0 90.0)
  end
  begin
     id 30
     name rthumb
     direction -0.707107 -6.34713e-011 0.707107   
     length 1.56195   
     axis -90 -45 -2.85299e-015   XYZ
    dof rx rz
    limits (-45.0 45.0)
           (-45.0 45.0)
  end
:hierarchy
  begin
    root lhipjoint rhipjoint lowerback
    lhipjoint lfemur
    lfemur ltibia
    ltibia lfoot
    lfoot ltoes
    rhipjoint rfemur
    rfemur rtibia
    rtibia rfoot
    rfoot rtoes
    lowerback upperback
    upperback thorax
    thorax lowerneck lclavicle rclavicle
    lowerneck upperneck
    upperneck head
    lclavicle lhumerus
    lhumerus lradius
    lradius lwrist
    lwrist lhand lthumb
    lhand lfingers
    rclavicle rhumerus
    rhumerus rradius
    rradius rwrist
    rwrist rhand rthumb
    rhand rfingers
  end

#!OML:ASF X:\für Bonn\!DataBase\2005_08_10_Bjorn_Final\c3d\bjorn.ASF
:FULLY-SPECIFIED
:DEGREES
16
root -21.6144 19.4679 0.212097 -355.03 -87.0078 1.95858
lowerback -11.8483 1.58735 -1.75814
upperback 4.737 2.70311 -2.95038
thorax 11.9185 1.26585 -1.64153
lowerneck -2.17495 -3.33561 4.42798
upperneck 0.169645 -4.55464 -6.69685
head 0.155449 -2.32475 -2.92737
rclavicle 2.78299e-015 3.89618e-014
rhumerus -40.8366 -15.9743 -88.7334
rradius 57.4142
rwrist -3.97653
rhand -15.2944 9.86479
rfingers 7.12502
rthumb 10.8808 -19.8333
lclavicle 2.78299e-015 3.89618e-014
lhumerus -29.4306 26.9983 76.1978
lradius 18.179
lwrist -53.6225
lhand -16.0908 -7.05262
lfingers 7.12502
lthumb 10.1126 22.6844
rfemur -13.9379 -15.6314 17.0615
rtibia 24.8407
rfoot -10.0253 18.3886
rtoes 3.62703
lfemur -14.0297 12.7973 -17.9304
ltibia 24.3178
lfoot -8.50996 -17.5071
ltoes 2.92718
17
root -21.6161 19.4673 0.211756 -354.721 -87.016 1.62667
lowerback -11.8454 1.59373 -1.84548
upperback 4.7047 2.72861 -2.99362
thorax 11.8791 1.27312 -1.63405
lowerneck -2.08268 -3.40185 4.19467
upperneck 0.0632955 -4.64089 -6.63526
head 0.107631 -2.36587 -2.85944
rclavicle 1.13307e-014 -2.38542e-015
rhumerus -41.0457 -15.7214 -88.7075
rradius 59.9734
rwrist -4.63329
rhand -15.2866 10.3309
rfingers 7.12502
rthumb 10.8883 -19.3668
lclavicle 1.13307e-014 -2.38542e-015
lhumerus -29.351 25.3284 76.9151
lradius 18.4951
lwrist -52.4586
lhand -16.2312 -6.86399
lfingers 7.12502
lthumb 9.97713 22.8796
rfemur -13.8991 -15.6204 17.0728
rtibia 24.8303
rfoot -10.0167 18.389
rtoes 3.64023
lfemur -14.0021 12.7948 -17.9022
ltibia 24.3345
lfoot -8.53554 -17.5003
ltoes 2.91702
18
root -21.6176 19.4666 0.211636 -354.213 -87.0219 1.0947
lowerback -11.8467 1.6068 -1.92736
upperback 4.66901 2.76182 -3.03205
thorax 11.8384 1.28434 -1.62259
lowerneck -1.96468 -3.47623 3.97243
upperneck -0.0489522 -4.73842 -6.58386
head 0.0527344 -2.41208 -2.79647
rclavicle -1.63003e-014 2.62396e-014
rhumerus -41.2507 -15.414 -88.6533
rradius 62.6784
rwrist -5.30333
rhand -15.2801 10.6478
rfingers 7.12502
rthumb 10.8946 -19.0496
lclavicle -1.63003e-014 2.62396e-014
lhumerus -29.3061 23.7521 77.5748
lradius 18.7912
lwrist -51.2633
lhand -16.378 -6.71056
lfingers 7.12502
lthumb 9.83544 23.0397
rfemur -13.8617 -15.6033 17.0962
rtibia 24.8221
rfoot -10.0259 18.3829
rtoes 3.63559
lfemur -13.9699 12.793 -17.8613
ltibia 24.3476
lfoot -8.55804 -17.4957
ltoes 2.91088
19
root -21.6186 19.4661 0.211303 -353.388 -87.0422 0.243496
lowerback -11.8583 1.62046 -1.99178
upperback 4.63581 2.79368 -3.07318
thorax 11.8078 1.29634 -1.62401
lowerneck -1.85974 -3.54358 3.77864
upperneck -0.130959 -4.82651 -6.54416
head 0.0095623 -2.45389 -2.74358
rclavicle 1.45113e-014 -1.35174e-014
rhumerus -41.4193 -15.0707 -88.6081
rradius 65.4629
rwrist -5.83547
rhand -15.3582 10.9134
rfingers 7.12502
rthumb 10.8193 -18.788
lclavicle 1.45113e-014 -1.35174e-014
lhumerus -29.3133 22.3508 78.1321
lradius 19.0994
lwrist -50.0896
lhand -16.547 -6.59038
lfingers 7.12502
lthumb 9.67242 23.1675
rfemur -13.8258 -15.5755 17.1375
rtibia 24.8124
rfoot -10.0189 18.3785
rtoes 3.71946
lfemur -13.9398 12.8069 -17.804
ltibia 24.3599
lfoot -8.56795 -17.5039
ltoes 2.95659
